<svg viewBox="0 0 870.96 537.63" xmlns="http://www.w3.org/2000/svg" id="图层_1"><defs><style>.cls-1{fill:#fcc874;}.cls-2{fill:#fee9c7;}.cls-3{fill:none;stroke:#3e3a39;stroke-miterlimit:10;stroke-width:3px;}.cls-4{fill:#fff9e5;}.cls-5{fill:#2d2611;}</style></defs><title>沙发猫咪</title><path transform="translate(-185.28 -344.18)" d="M1054.66,640.28c.48,54.93-2.09,97.32-6.45,130-1.91,0-46.75.54-112.61,1.13,1.07-59.23-9.19-107.05-11.28-116.25,18.21-.06,35.17-.24,50.33-.42,42.81-.72,71.59-2,76.3-4.18C1053.16,649.53,1054.36,646,1054.66,640.28Z" class="cls-1"></path><path transform="translate(-185.28 -344.18)" d="M1048.21,770.26c-14.21,108.67-46.93,110-46.93,110l-82.39-.12v-.72c11.76-36.36,16.12-74.1,16.72-108.07C1001.46,770.8,1046.3,770.26,1048.21,770.26Z" class="cls-2"></path><path transform="translate(-185.28 -344.18)" d="M1051,650.55c-4.72,2.21-33.5,3.46-76.3,4.18v-1.19s3.76-27.76-56.72-73.44a61.3,61.3,0,0,1-11.76-11.82c80.13-18,122.64-42.33,122.64-42.33,14.51,43.59,24.48,84.54,25.79,107v.48c0,2.27.06,4.48.06,6.69v.18C1054.36,646,1053.16,649.53,1051,650.55Z" class="cls-1"></path><path transform="translate(-185.28 -344.18)" d="M924.32,655.15c-37.91.24-81.44.12-126.52-.12-.24-7-3.94-33.32-44.72-67.95,60.6-1.79,111.83-9.43,153.09-18.81a61.3,61.3,0,0,0,11.76,11.82c60.48,45.68,56.72,73.44,56.72,73.44v1.19C959.49,654.91,942.53,655.09,924.32,655.15Z" class="cls-2"></path><path transform="translate(-185.28 -344.18)" d="M906.17,568.27c-45.26-58.75-18.33-210.82-17.43-216.08,20.84,1.37,36.06,3,43.47,4.84,31.47,7.7,71.05,92.43,96.6,168.91C1028.8,525.94,986.29,550.24,906.17,568.27Z" class="cls-2"></path><path transform="translate(-185.28 -344.18)" d="M797.8,655c45.08.24,88.6.36,126.52.12,2.09,9.19,12.36,57,11.28,116.25-68.07.54-158.64,1.19-247.48,1.31C686.63,711,676.3,653.89,676.3,653.89,716.12,654.37,757.56,654.73,797.8,655Z" class="cls-2"></path><path transform="translate(-185.28 -344.18)" d="M935.6,771.39c-.6,34-5,71.71-16.72,108.07v.72l-242.59-.3v-.18c10.27-29.2,12.72-69,11.82-107C777,772.59,867.54,771.93,935.6,771.39Z" class="cls-1"></path><path transform="translate(-185.28 -344.18)" d="M888.73,352.2c-.9,5.25-27.82,157.33,17.43,216.08-41.26,9.37-92.48,17-153.09,18.81-3.7-3.1-7.7-6.27-12-9.55-62.39-47-29.2-228.08-29.2-228.08l.06-3C782.4,347.42,846.94,349.33,888.73,352.2Z" class="cls-1"></path><path transform="translate(-185.28 -344.18)" d="M524.94,392.92c2.39-25.61,5.61-44.18,6-46.87,57.74-.6,121.44-.48,181,.42l-.06,3s-33.2,181,29.2,228.08c4.3,3.28,8.3,6.45,12,9.55-56.36,1.79-120.91-1.55-192.91-13.37C518.32,542.06,519.57,449.88,524.94,392.92Z" class="cls-2"></path><path transform="translate(-185.28 -344.18)" d="M688.12,772.71c.9,38-1.55,77.8-11.82,107v.18l-250.47-.3s-7.64,1.55-22.21.12c-8.42-29.61-4.9-70.69,2.63-109.92,2.45.24,5,.36,7.46.48C472.7,772.41,579.1,772.95,688.12,772.71Z" class="cls-2"></path><path transform="translate(-185.28 -344.18)" d="M676.3,653.89c-20.36-.18-40.24-.42-59.35-.66v-.06s3.82-33.79-56.72-79.41l-.06-.06c72,11.82,136.55,15.17,192.91,13.37C793.86,621.71,797.56,648,797.8,655,757.56,654.73,716.12,654.37,676.3,653.89Z" class="cls-1"></path><path transform="translate(-185.28 -344.18)" d="M560.23,573.77C620.77,619.38,617,653.18,617,653.18v.06c-99.71-1.31-177.09-2.69-177.09-2.69s-52-45.08-71.53-124.61c68.84,22.81,132.85,38.15,191.84,47.76Z" class="cls-2"></path><path transform="translate(-185.28 -344.18)" d="M524.94,392.92c-5.37,57-6.63,149.15,35.23,180.79-59-9.61-123-25-191.84-47.76,0,0-54.63,25.2-92.84,126.1C247.55,583.92,243,511.61,243,511.61c42.81-85.2,94.4-154.58,94.4-154.58,7.94-6.33,91.41-9.85,193.63-11C530.56,348.73,527.33,367.3,524.94,392.92Z" class="cls-1"></path><path transform="translate(-185.28 -344.18)" d="M439.86,650.55s77.38,1.37,177.09,2.69c19.11.24,39,.48,59.35.66,0,0,10.33,57.14,11.82,118.82-109,.24-215.42-.3-274.41-2.45-2.51-.12-5-.24-7.46-.48C418.13,707.81,439.86,650.55,439.86,650.55Z" class="cls-1"></path><path transform="translate(-185.28 -344.18)" d="M439.86,650.55s-21.73,57.26-33.61,119.23C338.84,763.63,298.9,709.36,275.49,652c38.21-100.9,92.84-126.1,92.84-126.1C387.86,605.47,439.86,650.55,439.86,650.55Z" class="cls-2"></path><path transform="translate(-185.28 -344.18)" d="M406.25,769.78c-7.52,39.23-11,80.3-2.63,109.92C375,877,319.67,862.86,243,803.16v-.06c5.85-63.17,18-112.61,32.54-151.06C298.9,709.36,338.84,763.63,406.25,769.78Z" class="cls-1"></path><path transform="translate(-185.28 -344.18)" d="M243,511.61s4.6,72.3,32.54,140.43C260.92,690.49,248.8,739.93,243,803.1c-6.21-4.78-12.54-9.85-19-15.28C155.54,730.43,193.33,610.43,243,511.61Z" class="cls-2"></path><path transform="translate(-185.28 -344.18)" d="M439.86,650.55s-52-45.08-71.53-124.61c-8.6-35.11-10.93-76.9.3-124.55" class="cls-3"></path><path transform="translate(-185.28 -344.18)" d="M1054.66,640.1c0-2.21-.06-4.42-.06-6.69" class="cls-3"></path><path transform="translate(-185.28 -344.18)" d="M243,803.16C319.67,862.86,375,877,403.62,879.7c14.57,1.43,22.21-.12,22.21-.12l250.47.3,242.59.3,82.39.12s32.72-1.37,46.93-110c4.36-32.66,6.93-75.05,6.45-130" class="cls-3"></path><path transform="translate(-185.28 -344.18)" d="M439.86,650.55s77.38,1.37,177.09,2.69c19.11.24,39,.48,59.35.66,39.82.48,81.26.84,121.5,1.13,45.08.24,88.6.36,126.52.12,18.21-.06,35.17-.24,50.33-.42,42.81-.72,71.59-2,76.3-4.18,2.21-1,3.4-4.6,3.7-10.27v-.18a50.62,50.62,0,0,0-.06-6.69v-.48c-1.31-22.45-11.28-63.41-25.79-107-25.55-76.48-65.14-161.21-96.6-168.91-7.4-1.85-22.63-3.46-43.47-4.84-41.79-2.87-106.34-4.78-176.79-5.73-59.53-.9-123.23-1-181-.42-102.22,1.13-185.69,4.66-193.63,11,0,0-51.59,69.38-94.4,154.58-49.62,98.81-87.41,218.82-19,276.2,6.45,5.43,12.78,10.51,19,15.28" class="cls-3"></path><path transform="translate(-185.28 -344.18)" d="M243,511.61s4.6,72.3,32.54,140.43c23.4,57.32,63.35,111.59,130.76,117.74,2.45.24,5,.36,7.46.48,59,2.15,165.39,2.69,274.41,2.45,88.84-.12,179.42-.78,247.48-1.31,65.86-.6,110.7-1.13,112.61-1.13h.06" class="cls-3"></path><path transform="translate(-185.28 -344.18)" d="M368.33,525.94S313.7,551.14,275.49,652C260.92,690.49,248.8,739.93,243,803.1v.06" class="cls-3"></path><path transform="translate(-185.28 -344.18)" d="M439.86,650.55s-21.73,57.26-33.61,119.23c-7.52,39.23-11,80.3-2.63,109.92" class="cls-3"></path><path transform="translate(-185.28 -344.18)" d="M676.3,653.89S686.63,711,688.12,772.71c.9,38-1.55,77.8-11.82,107" class="cls-3"></path><path transform="translate(-185.28 -344.18)" d="M923.9,653.53s.12.54.42,1.61c2.09,9.19,12.36,57,11.28,116.25-.6,34-5,71.71-16.72,108.07" class="cls-3"></path><path transform="translate(-185.28 -344.18)" d="M1028.8,525.94s-42.51,24.3-122.64,42.33c-41.26,9.37-92.48,17-153.09,18.81-56.36,1.79-120.91-1.55-192.91-13.37-59-9.61-123-25-191.84-47.76" class="cls-3"></path><line y2="50.35" x2="225.99" y1="50.35" x1="201.69" class="cls-3"></line><polyline points="243.84 50.35 339.67 48.74 482.66 46.35" class="cls-3"></polyline><path transform="translate(-185.28 -344.18)" d="M918.88,401.39s47.82,21.61,68.9,110.22" class="cls-3"></path><path transform="translate(-185.28 -344.18)" d="M891.42,394.53s11.34-5.61,17.85,0" class="cls-3"></path><path transform="translate(-185.28 -344.18)" d="M531.09,345.69a.92.92,0,0,1-.12.36c-.42,2.69-3.64,21.26-6,46.87-5.37,57-6.63,149.15,35.23,180.79l.06.06C620.77,619.38,617,653.18,617,653.18" class="cls-3"></path><path transform="translate(-185.28 -344.18)" d="M711.88,349.45s-33.2,181,29.2,228.08c4.3,3.28,8.3,6.45,12,9.55C793.86,621.71,797.56,648,797.8,655c0,1.25-.06,1.91-.06,1.91" class="cls-3"></path><path transform="translate(-185.28 -344.18)" d="M888.79,352.08a.18.18,0,0,1-.06.12c-.9,5.25-27.82,157.33,17.43,216.08a61.3,61.3,0,0,0,11.76,11.82c60.48,45.68,56.72,73.44,56.72,73.44" class="cls-3"></path><path transform="translate(-185.28 -344.18)" d="M820.61,563.38s41.42,9,19.66,30.22c-6.94-7-22.34-8.23-30.45-8.34v-.53a31.61,31.61,0,0,0,8.28-10.62A25.75,25.75,0,0,0,820.61,563.38Z" class="cls-4"></path><path transform="translate(-185.28 -344.18)" d="M804.1,512.56c2.8.53.64,8.58-3.79,15l-.23.29a45.87,45.87,0,0,0-5.89-4.14,23.2,23.2,0,0,0-2.39-1.23C793.95,520.21,801.71,512.1,804.1,512.56Z" class="cls-4"></path><path transform="translate(-185.28 -344.18)" d="M753.29,592.49l11.61-10.38,12-2.22c10.27,0,10.56-5.48,10.56-6.13v-.06l-3.33-2.8a6.62,6.62,0,0,0,1.46-.18c2.16-.58,3.56-2.1,3.21-3.44-.29-1.05-1.52-1.63-3-1.63l4.67-6.65a3.54,3.54,0,0,0,2.1.82l9.74,1.34,14.53-13a34.58,34.58,0,0,1,3.33,10.44,25.12,25.12,0,0,1-2.1,15.46,31.61,31.61,0,0,1-8.28,10.62v.53c8.11.12,23.51,1.34,30.45,8.34a11.6,11.6,0,0,1,2.51,3.56c6.36,13.65-20.24,19.49-20.24,19.49s-70.18,9-121.34-4.43-90.72,7.41-90.72,7.41-29.81,21.94-46.67,0c-16.57-21.53,42-36.4,78.58-37.45,3.33-11.26,30.92-93.58,126.83-60.15l.06.18a49.71,49.71,0,0,0-14.88,9s-26.14-9.86-33.72-6.65c0,0-2.45,20.36,16.86,24l1.75.35c-5.13,8.17-7.93,17.27-4.61,26a24.83,24.83,0,0,0,4.14,6.94,31.73,31.73,0,0,0,2.74,2.86A43.55,43.55,0,0,0,753.29,592.49Z" class="cls-4"></path><path transform="translate(-185.28 -344.18)" d="M806.78,502.76s9.51,10.21,0,31.21a54.06,54.06,0,0,0-6.71-6.13l.23-.29c4.43-6.42,6.59-14.47,3.79-15-2.39-.47-10.15,7.64-12.31,9.92a26,26,0,0,0-10.68-2.39S795.35,504.34,806.78,502.76Z" class="cls-4"></path><path transform="translate(-185.28 -344.18)" d="M788,554.86c-.82-3.21.18-6.24,2.22-6.77s4.38,1.63,5.25,4.84-.18,6.3-2.22,6.83a2.39,2.39,0,0,1-.64.06,3.54,3.54,0,0,1-2.1-.82A7.51,7.51,0,0,1,788,554.86Z" class="cls-5"></path><path transform="translate(-185.28 -344.18)" d="M763.32,561.33c-.88-3.21.12-6.3,2.16-6.83s4.43,1.69,5.25,4.9-.12,6.24-2.22,6.83S764.14,564.54,763.32,561.33Z" class="cls-5"></path><path transform="translate(-185.28 -344.18)" d="M764.89,582.1l-11.61,10.38a43.55,43.55,0,0,1-11.73-7.88,31.73,31.73,0,0,1-2.74-2.86,24.83,24.83,0,0,1-4.14-6.94c-3.33-8.69-.53-17.79,4.61-26,.88-1.4,1.75-2.74,2.68-4a79,79,0,0,1,6.59-7.82c1.11-1.23,2.28-2.45,3.44-3.56.76-.76,1.58-1.52,2.39-2.28a49.71,49.71,0,0,1,14.88-9,33.38,33.38,0,0,1,11.84-2.1,26,26,0,0,1,10.68,2.39,23.2,23.2,0,0,1,2.39,1.23,45.87,45.87,0,0,1,5.89,4.14,54.06,54.06,0,0,1,6.71,6.13,55.78,55.78,0,0,1,10.09,14.23l-14.53,13-9.74-1.34a2.39,2.39,0,0,0,.64-.06c2-.53,3-3.56,2.22-6.83s-3.21-5.37-5.25-4.84-3,3.56-2.22,6.77a7.51,7.51,0,0,0,2.51,4.14l-4.67,6.65a6.62,6.62,0,0,0-1.46.18c-2.1.58-3.56,2.1-3.21,3.44.29,1.05,1.52,1.63,3,1.63l3.33,2.8v.06c0,.64-.29,6.13-10.56,6.13Zm-1.58-20.77c.82,3.21,3.15,5.43,5.19,4.9s3-3.62,2.22-6.83-3.21-5.43-5.25-4.9S762.44,558.13,763.32,561.33Z" class="cls-4"></path><path transform="translate(-185.28 -344.18)" d="M732.63,534.38c1.93-1.58,13.3,1.81,15.93,2.63a79,79,0,0,0-6.59,7.82C735.55,541.38,730.65,536.07,732.63,534.38Z" class="cls-4"></path><path transform="translate(-185.28 -344.18)" d="M720.67,524.52c7.58-3.21,33.72,6.65,33.72,6.65-.82.76-1.63,1.52-2.39,2.28-1.17,1.11-2.33,2.33-3.44,3.56-2.63-.82-14-4.2-15.93-2.63s2.92,7,9.33,10.44c-.93,1.28-1.81,2.63-2.68,4l-1.75-.35C718.22,544.88,720.67,524.52,720.67,524.52Z" class="cls-4"></path><path transform="translate(-185.28 -344.18)" d="M642,583.44s.12-.47.35-1.28c3.33-11.26,30.92-93.58,126.83-60.15" class="cls-3"></path><path transform="translate(-185.28 -344.18)" d="M761.86,595.81a61.89,61.89,0,0,1-8.58-3.33,43.55,43.55,0,0,1-11.73-7.88,31.73,31.73,0,0,1-2.74-2.86,24.83,24.83,0,0,1-4.14-6.94c-3.33-8.69-.53-17.79,4.61-26,.88-1.4,1.75-2.74,2.68-4a79,79,0,0,1,6.59-7.82c1.11-1.23,2.28-2.45,3.44-3.56.76-.76,1.58-1.52,2.39-2.28a49.71,49.71,0,0,1,14.88-9,33.38,33.38,0,0,1,11.84-2.1,26,26,0,0,1,10.68,2.39,23.2,23.2,0,0,1,2.39,1.23,45.87,45.87,0,0,1,5.89,4.14,54.06,54.06,0,0,1,6.71,6.13,55.78,55.78,0,0,1,10.09,14.23,34.58,34.58,0,0,1,3.33,10.44,25.12,25.12,0,0,1-2.1,15.46,31.61,31.61,0,0,1-8.28,10.62" class="cls-3"></path><path transform="translate(-185.28 -344.18)" d="M781.11,520.09s14.23-15.75,25.67-17.33c0,0,9.51,10.21,0,31.21" class="cls-3"></path><path transform="translate(-185.28 -344.18)" d="M754.39,531.17s-26.14-9.86-33.72-6.65c0,0-2.45,20.36,16.86,24" class="cls-3"></path><path transform="translate(-185.28 -344.18)" d="M790.51,559a7.51,7.51,0,0,1-2.51-4.14c-.82-3.21.18-6.24,2.22-6.77s4.38,1.63,5.25,4.84-.18,6.3-2.22,6.83a2.39,2.39,0,0,1-.64.06A3.54,3.54,0,0,1,790.51,559Z" class="cls-3"></path><path transform="translate(-185.28 -344.18)" d="M770.73,559.41c.82,3.21-.12,6.24-2.22,6.83s-4.38-1.69-5.19-4.9.12-6.3,2.16-6.83S769.91,556.2,770.73,559.41Z" class="cls-3"></path><path transform="translate(-185.28 -344.18)" d="M785.84,565.65c1.46,0,2.68.58,3,1.63.35,1.34-1.05,2.86-3.21,3.44a6.62,6.62,0,0,1-1.46.18c-1.46,0-2.68-.58-3-1.63-.35-1.34,1.11-2.86,3.21-3.44A6.62,6.62,0,0,1,785.84,565.65Z" class="cls-3"></path><path transform="translate(-185.28 -344.18)" d="M787.47,573.7v.06s5,4.43,10.79,1.52" class="cls-3"></path><path transform="translate(-185.28 -344.18)" d="M776.91,579.89c10.27,0,10.56-5.48,10.56-6.13" class="cls-3"></path><path transform="translate(-185.28 -344.18)" d="M804.57,585.31s2-.12,5.25-.06c8.11.12,23.51,1.34,30.45,8.34a11.6,11.6,0,0,1,2.51,3.56c6.36,13.65-20.24,19.49-20.24,19.49s-70.18,9-121.34-4.43-90.72,7.41-90.72,7.41-29.81,21.94-46.67,0c-16.57-21.53,42-36.4,78.58-37.45.76-.06,1.52-.06,2.22-.06" class="cls-3"></path><path transform="translate(-185.28 -344.18)" d="M820.61,563.38s41.42,9,19.66,30.22" class="cls-3"></path><polyline points="577.87 228.47 549.4 230.63 541.23 231.22" class="cls-3"></polyline><polyline points="579.62 232.62 556.28 240.43 542.16 245.22" class="cls-3"></polyline><polyline points="579.62 237.93 568.01 248.31 563.52 252.34" class="cls-3"></polyline><polyline points="617.07 216.98 631.6 204.03 639.3 197.21" class="cls-3"></polyline><polyline points="618.47 223.17 634.92 214.47 647.64 207.82" class="cls-3"></polyline><polyline points="619.7 228.47 632.82 229.93 644.61 231.22" class="cls-3"></polyline><path transform="translate(-185.28 -344.18)" d="M749.08,537.18l-.53-.18c-2.63-.82-14-4.2-15.93-2.63s2.92,7,9.33,10.44l1.4.7" class="cls-3"></path><path transform="translate(-185.28 -344.18)" d="M791.21,523.12s.23-.23.58-.64c2.16-2.28,9.92-10.38,12.31-9.92,2.8.53.64,8.58-3.79,15" class="cls-3"></path></svg>