<svg version="1.1" xmlns="http://www.w3.org/2000/svg" xmlns:xlink="http://www.w3.org/1999/xlink" width="500" height="500"><g data-paper-data="{&quot;description&quot;:&quot;Logo for Ly\n===========\n\nThis logo was generated by MarkMaker at http://emblemmatic.org/markmaker/ and may be composed of elements designed by others.\n\nThe font is Rubik Bold Italic designed by Hubert and Fischer and released under the OFL license via Google Fonts: https://www.google.com/fonts/specimen/Rubik. The font includes this copyright statement: Copyright (c) 2015 by Hubert &amp; Fischer. All rights reserved.\n\nMarkMaker uses semantic data from the Princeton University WordNet database http://wordnet.princeton.edu and font descriptions from Google Fonts https://www.google.com/fonts.&quot;}" fill="#028b8b" fill-rule="nonzero" stroke="none" stroke-width="1" stroke-linecap="butt" stroke-linejoin="miter" stroke-miterlimit="10" stroke-dasharray="" stroke-dashoffset="0" font-family="none" font-weight="none" font-size="none" text-anchor="none" style="mix-blend-mode: normal"><g data-paper-data="{&quot;elementType&quot;:&quot;logo&quot;}"><g data-paper-data="{&quot;elementType&quot;:&quot;text&quot;}"><g data-paper-data="{&quot;baseline&quot;:71,&quot;elementType&quot;:&quot;row&quot;}"><g data-paper-data="{&quot;baselineProportion&quot;:0.7888888888888889,&quot;fontSize&quot;:100,&quot;baseline&quot;:71,&quot;elementType&quot;:&quot;word&quot;}"><path d="M125.47987,347.44973c-0.55765,3.06709 -2.1609,5.71594 -4.80975,7.94654c-2.64885,2.23061 -5.50682,3.34591 -8.5739,3.34591h-52.69813c-3.06709,0 -5.50682,-1.1153 -7.31919,-3.34591c-1.81237,-2.23061 -2.43973,-4.87946 -1.88208,-7.94654l58.55348,-274.36489c0.55765,-3.06709 2.1609,-5.71594 4.80975,-7.94654c2.64885,-2.23061 5.50682,-3.34591 8.5739,-3.34591h52.69813c3.06709,0 5.50682,1.1153 7.31919,3.34591c1.81237,2.23061 2.43973,4.87946 1.88208,7.94654z" data-paper-data="{&quot;elementType&quot;:&quot;letter&quot;,&quot;baseline&quot;:71,&quot;baselineProportion&quot;:1,&quot;fontSize&quot;:100}"></path><path d="M273.53653,428.16988c-1.39413,2.23061 -3.27621,4.46122 -5.64623,6.69183c-2.37002,2.23061 -5.22799,3.34591 -8.5739,3.34591h-59.38996c-3.34591,0 -5.78564,-1.39413 -7.31919,-4.18239c-1.53354,-2.78826 -1.32442,-5.71594 0.62736,-8.78302l49.35222,-76.95601l-43.07863,-194.06297c-0.83648,-3.34591 0.20912,-6.34329 3.13679,-8.99214c2.92767,-2.64885 6.06447,-3.97327 9.41038,-3.97327h53.11637c3.34591,0 5.71594,1.1153 7.11007,3.34591c1.39413,2.23061 2.37002,4.46122 2.92767,6.69183l23.42139,108.74218l69.00946,-108.74218c1.39413,-2.23061 3.27621,-4.46122 5.64623,-6.69183c2.37002,-2.23061 5.22799,-3.34591 8.5739,-3.34591h59.8082c3.34591,0 5.78564,1.39413 7.31919,4.18239c1.53354,2.78826 1.32442,5.71594 -0.62736,8.78302z" data-paper-data="{&quot;elementType&quot;:&quot;letter&quot;,&quot;baseline&quot;:52,&quot;baselineProportion&quot;:0.7323943661971831,&quot;fontSize&quot;:100}"></path></g></g></g></g></g></svg>